<svg xmlns="http://www.w3.org/2000/svg" width="1600" height="900" viewBox="0 0 1600 900"><style>.panel{fill:#0d141e;stroke:#1c2a3a;stroke-width:1.5}.panel2{fill:#08111a;stroke:#22364b;stroke-width:1.2}.text{font-family:Inter,Segoe UI,Arial,sans-serif;fill:#edf3fa}.muted{font-family:Inter,Segoe UI,Arial,sans-serif;fill:#8495a9}.good{fill:#42d392}.small{font-size:14px}.xs{font-size:11px}.md{font-size:18px}.lg{font-size:28px;font-weight:700}.bold{font-weight:700}</style><defs><linearGradient id="g" x1="0" y1="0" x2="1" y2="1"><stop offset="0" stop-color="#101d2d"/><stop offset="0.55" stop-color="#060a11"/><stop offset="1" stop-color="#030508"/></linearGradient></defs><rect width="1600" height="900" fill="url(#g)"/><rect x="0" y="0" width="228" height="900" fill="#070b11" stroke="#172434"/><text x="28" y="55" class="text lg">VEYRA</text><text x="29" y="79" class="muted xs">AI-NVR · local first</text><rect x="16" y="122" width="196" height="42" rx="10" fill="transparent"/><circle cx="36" cy="143" r="5" fill="#b9c8d7"/><text x="52" y="148" class="text small">Panel</text><rect x="16" y="174" width="196" height="42" rx="10" fill="transparent"/><circle cx="36" cy="195" r="5" fill="#b9c8d7"/><text x="52" y="200" class="text small">Monitor Wall</text><rect x="16" y="226" width="196" height="42" rx="10" fill="transparent"/><circle cx="36" cy="247" r="5" fill="#b9c8d7"/><text x="52" y="252" class="text small">Galeria</text><rect x="16" y="278" width="196" height="42" rx="10" fill="transparent"/><circle cx="36" cy="299" r="5" fill="#b9c8d7"/><text x="52" y="304" class="text small">Statystyki</text><rect x="16" y="330" width="196" height="42" rx="10" fill="transparent"/><circle cx="36" cy="351" r="5" fill="#b9c8d7"/><text x="52" y="356" class="text small">Logi</text><rect x="16" y="382" width="196" height="42" rx="10" fill="transparent"/><circle cx="36" cy="403" r="5" fill="#b9c8d7"/><text x="52" y="408" class="text small">Użytkownicy</text><rect x="16" y="434" width="196" height="42" rx="10" fill="#122033"/><circle cx="36" cy="455" r="5" fill="#53d7ec"/><text x="52" y="460" class="text small">Ustawienia</text><text x="28" y="850" class="muted xs">VEYRA 1.2.108</text><rect x="228" y="0" width="1372" height="92" fill="#070c13" stroke="#172434"/><text x="264" y="40" class="text lg">Ustawienia systemu</text><text x="264" y="66" class="muted small">Veyra · Vision · Integracje · Aktualizacje</text><rect x="1435" y="26" width="120" height="40" rx="10" fill="#142238" stroke="#29415d"/><text x="1495" y="51" text-anchor="middle" class="text small bold">ciemny</text><rect x="264" y="125" width="1290" height="60" rx="12" class="panel"/><rect x="284" y="137" width="142" height="36" rx="9" fill="#0a111a" stroke="#22364b"/><text x="355" y="160" text-anchor="middle" class="text xs bold">Veyra</text><rect x="444" y="137" width="142" height="36" rx="9" fill="#0a111a" stroke="#22364b"/><text x="515" y="160" text-anchor="middle" class="text xs bold">Vision</text><rect x="604" y="137" width="142" height="36" rx="9" fill="#142238" stroke="#53d7ec"/><text x="675" y="160" text-anchor="middle" class="text xs bold">Integracje</text><rect x="764" y="137" width="142" height="36" rx="9" fill="#0a111a" stroke="#22364b"/><text x="835" y="160" text-anchor="middle" class="text xs bold">Aktualizacje</text><text x="264" y="230" class="text lg">Integracje</text><text x="264" y="258" class="muted small">Połącz VEYRA z innymi usługami i wybierz funkcje rozszerzające system.</text><rect x="264" y="282" width="136" height="38" rx="9" fill="#142238" stroke="#29415d"/><text x="332" y="306" text-anchor="middle" class="text xs bold">Ogólne</text><rect x="414" y="282" width="136" height="38" rx="9" fill="#08111a" stroke="#29415d"/><text x="482" y="306" text-anchor="middle" class="text xs bold">Powiadomienia</text><rect x="264" y="355" width="790" height="126" rx="14" class="panel"/><text x="290" y="391" class="text md bold">GESTURE</text><text x="290" y="419" class="muted small">Gesty w zdefiniowanych strefach</text><text x="290" y="449" class="muted xs">Pose wrist → hand pixel → motion</text><rect x="968" y="393" width="54" height="28" rx="14" fill="#173a36"/><circle cx="1007" cy="407" r="10" fill="#42d392"/><text x="932" y="413" class="good xs bold">ON</text><rect x="264" y="500" width="790" height="126" rx="14" class="panel"/><text x="290" y="536" class="text md bold">VISION</text><text x="290" y="564" class="muted small">Lokalna weryfikacja TP / FP / ?</text><text x="290" y="594" class="muted xs">Opcjonalny verifier dla snapshotów</text><rect x="968" y="538" width="54" height="28" rx="14" fill="#173a36"/><circle cx="1007" cy="552" r="10" fill="#42d392"/><text x="932" y="558" class="good xs bold">ON</text><rect x="264" y="645" width="790" height="126" rx="14" class="panel"/><text x="290" y="681" class="text md bold">Home Assistant</text><text x="290" y="709" class="muted small">Natywna integracja HACS / MQTT</text><text x="290" y="739" class="muted xs">Encje kamer, motion, detection, notifications</text><rect x="968" y="683" width="54" height="28" rx="14" fill="#173a36"/><circle cx="1007" cy="697" r="10" fill="#42d392"/><text x="932" y="703" class="good xs bold">ON</text><rect x="1082" y="355" width="472" height="416" rx="14" class="panel"/><text x="1110" y="393" class="text md bold">Powiadomienia</text><text x="1110" y="420" class="muted xs">Telegram · ntfy · Pushover · Discord</text><rect x="1110" y="456" width="416" height="50" rx="10" class="panel2"/><text x="1128" y="486" class="text small bold">Telegram</text><circle cx="1490" cy="481" r="7" fill="#42d392"/><rect x="1110" y="522" width="416" height="50" rx="10" class="panel2"/><text x="1128" y="552" class="text small bold">ntfy</text><circle cx="1490" cy="547" r="7" fill="#42d392"/><rect x="1110" y="588" width="416" height="50" rx="10" class="panel2"/><text x="1128" y="618" class="text small bold">Pushover</text><circle cx="1490" cy="613" r="7" fill="#8495a9"/><rect x="1110" y="654" width="416" height="50" rx="10" class="panel2"/><text x="1128" y="684" class="text small bold">Discord webhook</text><circle cx="1490" cy="679" r="7" fill="#8495a9"/><text x="1110" y="744" class="muted xs">Testy połączeń uruchamiane tylko na żądanie.</text></svg>